<?xml version="1.0" encoding="UTF-8" standalone="no"?>
<!-- Uploaded to: SVG Repo, www.svgrepo.com, Transformed by: SVG Repo Mixer Tools -->

<svg
   fill="#004de6"
   width="55.785828"
   height="55.785603"
   viewBox="0 0 48.812599 48.812402"
   stroke="#004de6"
   version="1.1"
   id="svg1"
   xmlns="http://www.w3.org/2000/svg"
   xmlns:svg="http://www.w3.org/2000/svg">
  <defs
     id="defs1" />
  <g
     id="SVGRepo_iconCarrier"
     transform="translate(-3.5937,-3.5938)">
    <path
       d="M 27.9999,51.9062 C 41.0546,51.9062 51.9063,41.0547 51.9063,28 51.9063,14.9219 41.0312,4.0938 27.9765,4.0938 14.8983,4.0938 4.0937,14.9219 4.0937,28 c 0,13.0547 10.8281,23.9062 23.9062,23.9062 z m -0.0234,-22.664 c -0.3985,0 -0.8438,-0.1406 -1.3125,-0.6094 L 16.328,18.2969 c 0.2813,-0.2344 0.9844,-0.4688 1.9688,-0.4688 h 19.3359 c 1.0078,0 1.6875,0.2344 1.9687,0.4688 L 29.2655,28.6328 c -0.4453,0.4453 -0.8906,0.6094 -1.289,0.6094 z M 23.3358,28 15.203,36.1328 C 15.039,35.8516 14.9687,35.2656 14.9687,34.4453 V 21.4609 c 0,-0.8203 0.0703,-1.3828 0.2109,-1.6171 z m 9.1876,0 8.1796,-8.1562 c 0.1172,0.2343 0.1875,0.7968 0.1875,1.6171 v 12.9844 c 0,0.8203 -0.0703,1.4063 -0.2343,1.6875 z m -4.5704,3.0938 c 0.8438,0 1.5,-0.3047 2.4141,-1.1485 l 0.75,-0.7031 8.4141,8.414 c -0.2813,0.2578 -0.9376,0.4219 -1.9219,0.4219 H 18.2968 c -0.9844,0 -1.6406,-0.1641 -1.9219,-0.4219 l 8.4141,-8.414 0.75,0.7031 c 0.914,0.8438 1.5703,1.1485 2.414,1.1485 z"
       id="path1" />
  </g>
</svg>
