<?xml version="1.0" encoding="UTF-8" standalone="no"?>
<!-- Uploaded to: SVG Repo, www.svgrepo.com, Transformed by: SVG Repo Mixer Tools -->

<svg
   fill="#004de6"
   width="56.143085"
   height="56.116116"
   viewBox="0 0 49.1252 49.101601"
   version="1.1"
   id="svg1"
   xmlns="http://www.w3.org/2000/svg"
   xmlns:svg="http://www.w3.org/2000/svg">
  <defs
     id="defs1" />
  <g
     id="SVGRepo_iconCarrier"
     transform="translate(-3.4374,-3.4492)">
    <path
       d="m 32.7812,52.5508 c 1.6875,0 2.8828,-1.4531 3.75,-3.7031 L 51.8829,8.7461 c 0.4219,-1.0781 0.6797,-2.0391 0.6797,-2.8359 0,-1.5235 -0.961,-2.461 -2.4845,-2.461 -0.7968,0 -1.7578,0.2344 -2.8358,0.6563 L 6.9296,19.5508 c -1.9687,0.75 -3.4922,1.9453 -3.4922,3.6562 0,2.1563 1.6406,2.8829 3.8906,3.5625 l 12.6797,3.8438 c 1.4766,0.4688 2.3203,0.4219 3.3282,-0.5156 L 49.0466,6.0742 c 0.3048,-0.2812 0.6566,-0.2343 0.8909,-0.0234 0.2342,0.2344 0.2577,0.5859 -0.0236,0.8906 L 25.9843,32.7461 c -0.8906,0.9609 -0.9844,1.7578 -0.5156,3.3281 l 3.7031,12.375 c 0.7031,2.3672 1.4297,4.1016 3.6094,4.1016 z"
       id="path1" />
  </g>
</svg>
